<?xml version="1.0" standalone="no"?>
<!DOCTYPE svg PUBLIC "-//W3C//DTD SVG 20010904//EN"
 "http://www.w3.org/TR/2001/REC-SVG-20010904/DTD/svg10.dtd">
<svg version="1.0" xmlns="http://www.w3.org/2000/svg"
 width="600.000000pt" height="601.000000pt" viewBox="0 0 600.000000 601.000000"
 preserveAspectRatio="xMidYMid meet">

<g transform="translate(0.000000,601.000000) scale(0.100000,-0.100000)"
fill="#000000" stroke="none">
<path d="M2866 6003 c5 -5 70 -5 144 -2 l135 5 -144 2 c-80 1 -141 -1 -135 -5z"/>
<path d="M2758 5993 c12 -2 32 -2 45 0 12 2 2 4 -23 4 -25 0 -35 -2 -22 -4z"/>
<path d="M3183 5993 c20 -2 54 -2 75 0 20 2 3 4 -38 4 -41 0 -58 -2 -37 -4z"/>
<path d="M2610 5980 c-41 -6 -42 -7 -10 -8 19 0 58 3 85 8 47 7 48 7 10 7 -22
0 -60 -3 -85 -7z"/>
<path d="M3318 5983 c12 -2 32 -2 45 0 12 2 2 4 -23 4 -25 0 -35 -2 -22 -4z"/>
<path d="M3391 5976 c7 -6 270 -48 275 -44 2 3 -55 15 -128 27 -135 22 -155
24 -147 17z"/>
<path d="M2397 5945 c-341 -75 -689 -215 -976 -394 -698 -436 -1187 -1132
-1355 -1926 -48 -228 -60 -352 -60 -620 -1 -261 6 -338 50 -573 197 -1054 969
-1935 1997 -2276 877 -292 1822 -168 2597 340 452 296 840 743 1066 1230 251
540 337 1140 249 1727 -128 853 -631 1620 -1372 2095 -62 40 -121 75 -130 78
-23 6 -16 1 131 -91 180 -114 312 -219 455 -362 152 -152 168 -180 182 -318
10 -108 14 -119 60 -144 32 -18 39 -28 39 -52 0 -25 -6 -33 -37 -45 -20 -9
-45 -13 -56 -10 -19 5 -77 -18 -77 -30 0 -3 25 -16 56 -30 46 -20 55 -28 52
-47 -3 -19 -10 -22 -60 -25 -68 -4 -70 -9 -38 -100 14 -39 19 -69 14 -95 -5
-33 -1 -45 24 -80 16 -23 41 -65 55 -94 15 -28 40 -61 56 -72 28 -20 29 -20
34 -2 2 11 2 59 -1 109 -2 49 -1 111 2 137 l8 48 50 -6 51 -6 -5 63 c-5 56
-10 69 -53 124 l-48 62 28 25 c21 20 26 32 21 53 -14 63 -18 122 -9 122 13 0
139 -195 200 -310 164 -310 277 -683 313 -1035 13 -121 15 -428 4 -538 -6 -65
-9 -70 -38 -84 -22 -10 -49 -42 -85 -100 l-54 -85 -46 7 c-61 9 -71 16 -125
78 -75 88 -152 279 -175 434 -6 39 -11 149 -11 243 0 162 -1 174 -26 233 -55
128 -63 163 -52 204 6 21 19 50 29 65 12 16 19 43 19 71 0 85 -25 63 -51 -46
-11 -45 -54 -97 -81 -97 -6 0 -33 14 -60 31 -38 25 -48 37 -48 58 0 18 -12 39
-35 61 -47 45 -48 93 -5 135 24 23 30 37 30 71 0 41 -2 44 -37 54 -21 6 -57
13 -81 17 -65 9 -82 37 -75 122 5 66 4 72 -33 140 -25 47 -51 80 -76 96 -41
27 -51 53 -69 172 -9 60 -19 83 -60 144 -27 39 -49 77 -49 83 0 6 -5 28 -10
48 -9 29 -18 39 -46 48 -20 7 -63 27 -96 46 -33 19 -66 34 -74 34 -24 0 -28
-29 -8 -51 19 -21 18 -21 -9 -43 -34 -27 -34 -33 2 -41 16 -3 60 -33 98 -65
37 -33 85 -70 105 -82 21 -13 38 -26 38 -30 0 -4 -17 -16 -38 -27 -21 -11 -43
-31 -50 -46 -11 -23 -16 -25 -49 -19 -60 11 -138 60 -159 99 -10 19 -22 35
-26 35 -4 0 -19 18 -33 39 -20 33 -47 51 -153 106 -110 56 -134 73 -161 112
-26 36 -30 48 -19 55 33 23 97 47 146 53 55 7 65 22 42 66 -13 23 -65 26 -74
3 -4 -11 -17 -14 -48 -12 -41 3 -43 4 -40 34 2 26 -2 33 -26 43 -16 7 -38 25
-49 40 -17 22 -301 221 -316 221 -3 0 -24 -15 -46 -34 -52 -43 -90 -52 -131
-31 -45 23 -151 18 -242 -13 -90 -30 -189 -32 -268 -5 -47 15 -55 22 -58 46
-3 26 -5 27 -71 27 -53 0 -71 -4 -85 -19 -12 -13 -36 -20 -94 -24 -42 -3 -94
-11 -114 -17 -31 -9 -37 -15 -40 -42 -4 -44 -40 -67 -109 -69 -72 -3 -114 -34
-99 -73 8 -22 6 -28 -16 -42 -13 -9 -53 -20 -89 -23 -35 -4 -68 -10 -72 -15
-4 -4 -12 -31 -18 -59 -9 -49 -17 -59 -127 -164 -83 -79 -128 -115 -154 -122
-21 -6 -41 -8 -46 -5 -4 3 5 25 21 48 40 58 34 86 -20 86 -36 0 -41 4 -76 56
l-37 56 61 59 c40 39 69 59 85 59 37 0 71 76 62 139 l-6 47 81 38 c73 34 81
41 81 66 0 15 3 41 6 57 5 26 1 34 -37 61 l-42 32 34 14 c149 62 445 146 577
164 41 6 77 13 80 16 11 12 -56 4 -161 -19z m1077 -1054 c34 -22 91 -48 128
-60 79 -24 169 -86 239 -165 43 -48 49 -60 49 -99 0 -32 -6 -49 -21 -63 -34
-31 -38 -45 -49 -198 -11 -162 -8 -178 40 -194 16 -6 30 -16 30 -22 0 -6 14
-16 30 -21 40 -15 38 -23 -10 -39 -23 -8 -45 -20 -49 -28 -5 -8 -30 -15 -66
-18 -51 -3 -64 0 -109 27 -67 41 -96 68 -96 91 0 10 -17 28 -38 42 -37 23 -38
26 -49 106 -10 72 -15 86 -44 117 -46 47 -199 163 -216 163 -8 0 -39 23 -69
52 -40 38 -57 63 -65 95 -6 24 -15 43 -20 43 -16 0 -47 -57 -64 -117 -10 -35
-21 -63 -25 -63 -15 0 -88 59 -108 87 l-21 29 21 45 c11 25 20 63 19 87 -1 42
0 43 45 62 65 28 102 26 114 -5 8 -21 14 -24 37 -19 16 3 42 21 58 39 36 39
51 45 130 55 108 13 116 12 179 -29z m-1456 -18 c21 -19 42 -97 42 -160 0 -66
79 -149 323 -337 48 -38 89 -67 91 -65 2 2 6 21 9 41 5 33 2 38 -33 63 -28 20
-40 36 -45 63 -4 23 -18 46 -37 62 l-30 25 24 21 c13 12 42 24 65 27 40 5 43
3 68 -35 14 -22 41 -48 60 -59 38 -23 55 -60 56 -128 2 -98 30 -132 74 -91 14
13 25 34 25 46 0 40 19 76 37 72 13 -2 20 -17 25 -53 12 -88 16 -93 55 -104
27 -8 47 -7 70 1 28 10 35 9 53 -7 31 -28 24 -50 -31 -97 -118 -100 -184 -166
-220 -222 -36 -55 -39 -64 -39 -130 1 -94 13 -110 110 -137 102 -28 120 -41
120 -87 0 -23 11 -54 30 -84 27 -44 75 -86 85 -76 2 2 11 47 19 100 8 53 22
108 31 122 16 24 16 27 -4 54 -16 24 -21 47 -23 132 -3 101 -2 104 21 116 35
18 153 -33 202 -87 34 -36 43 -40 108 -48 65 -8 76 -13 149 -70 44 -34 98 -84
121 -111 103 -123 78 -194 -79 -225 -78 -16 -190 -97 -190 -137 0 -10 2 -18 5
-18 14 0 82 40 98 58 25 27 71 16 75 -19 7 -43 21 -52 79 -45 46 5 54 4 63
-14 15 -28 9 -34 -68 -79 -37 -21 -75 -48 -85 -59 -16 -17 -22 -18 -48 -9 -45
17 -76 -6 -122 -91 -21 -39 -45 -72 -52 -72 -39 0 -107 -151 -120 -263 -6 -54
-9 -59 -59 -100 -29 -23 -68 -53 -88 -67 -43 -29 -73 -78 -87 -142 -9 -40 -8
-54 9 -93 11 -26 23 -64 26 -85 5 -33 3 -39 -15 -45 -29 -9 -34 -4 -92 81 -41
61 -59 79 -96 95 -67 28 -143 35 -181 15 -39 -20 -69 -20 -118 0 -45 19 -164
13 -199 -10 -11 -7 -37 -38 -58 -68 -43 -64 -57 -124 -47 -213 6 -54 10 -61
56 -101 90 -80 185 -92 224 -29 28 45 85 63 129 40 32 -16 33 -17 26 -68 -4
-29 -16 -69 -27 -90 -18 -36 -18 -40 -3 -63 13 -20 24 -24 68 -24 68 0 124
-16 165 -46 37 -29 41 -57 17 -124 -21 -58 -11 -83 48 -128 45 -33 61 -40 117
-44 36 -3 73 -9 83 -13 12 -5 26 2 50 27 35 39 162 118 187 118 9 0 45 -10 79
-21 60 -20 65 -21 97 -5 24 11 62 16 122 16 48 0 114 7 147 15 86 20 101 19
190 -19 100 -41 182 -56 318 -56 l106 0 58 -71 58 -71 70 6 c94 9 291 54 337
77 20 10 45 19 55 19 21 0 93 -49 93 -63 0 -5 -28 -48 -62 -96 -69 -96 -118
-204 -118 -260 0 -21 -6 -44 -12 -52 -7 -9 -73 -60 -147 -113 -244 -179 -574
-344 -861 -431 -151 -47 -436 -109 -457 -100 -17 6 -16 48 2 92 16 39 12 92
-9 105 -6 4 -20 8 -30 8 -12 0 -62 44 -123 110 -64 67 -127 123 -166 146 -34
21 -83 54 -109 73 -48 35 -48 36 -48 93 0 42 7 72 24 107 22 42 31 50 71 61
66 18 85 59 84 176 l-1 87 -96 -6 c-93 -5 -101 -3 -191 31 l-94 36 -33 70
c-34 74 -77 122 -154 173 -43 29 -220 102 -381 158 -62 21 -90 38 -155 97 -43
38 -104 83 -135 98 -77 39 -93 67 -93 160 -1 69 -5 83 -50 175 -27 55 -60 145
-75 199 -14 55 -32 101 -38 104 -21 6 -35 -48 -27 -102 7 -56 38 -152 55 -172
25 -30 -9 -12 -44 23 -22 24 -46 65 -62 108 -15 39 -32 79 -39 90 -11 18 -20
51 -31 120 -1 12 -17 70 -34 129 -31 108 -31 110 -20 225 19 212 34 283 83
384 24 51 65 120 89 153 l46 60 -6 114 c-5 123 -1 150 56 360 37 136 41 239
12 310 -21 51 -68 84 -161 115 -85 28 -150 64 -159 88 -11 29 -5 34 16 14 10
-8 35 -18 55 -22 35 -7 38 -5 44 21 13 53 53 122 84 144 27 19 39 21 90 15
l59 -7 23 49 23 48 57 0 c31 0 60 3 64 8 4 4 35 7 70 7 44 0 67 -5 82 -17z
m2658 -313 c43 -18 100 -43 127 -56 l47 -24 0 -55 c0 -40 -4 -57 -15 -61 -8
-3 -54 12 -102 35 -73 34 -89 38 -91 25 -2 -9 15 -35 37 -58 46 -47 52 -66 19
-66 -45 1 -95 60 -121 141 -13 41 -38 96 -55 123 -37 57 -39 71 -15 85 14 7
26 2 53 -23 20 -18 72 -47 116 -66z m-481 9 c13 -19 -25 -115 -62 -157 -33
-38 -42 -43 -66 -37 -36 9 -63 49 -71 107 -6 42 -5 48 16 59 12 6 30 21 39 32
9 12 32 26 50 33 29 10 38 9 61 -8 15 -10 30 -23 33 -29z m-1140 -178 c99 -52
112 -62 131 -102 25 -51 43 -69 102 -99 25 -13 54 -39 68 -62 l25 -39 -21 -26
c-11 -14 -25 -43 -30 -64 -15 -55 -40 -58 -155 -20 -51 17 -103 31 -114 31
-30 0 -26 15 14 47 32 26 35 32 35 83 0 71 -25 102 -100 125 -30 10 -71 26
-90 35 -34 17 -100 89 -100 109 0 5 12 19 27 31 38 30 74 21 208 -49z m859
-1063 c22 -30 12 -38 -49 -38 -51 0 -55 2 -93 48 -47 56 -71 101 -65 122 3 8
6 21 9 28 4 13 171 -122 198 -160z m-942 -1357 c24 -30 85 -54 168 -67 25 -3
62 -15 83 -25 32 -17 36 -22 27 -39 -14 -25 -95 -38 -124 -19 -12 7 -41 23
-64 36 -39 20 -46 21 -66 8 -19 -13 -25 -13 -44 1 -12 8 -22 21 -22 27 0 16
-28 33 -70 42 -19 4 -39 10 -44 12 -12 8 16 23 44 23 14 0 34 7 44 15 28 21
42 19 68 -14z m479 -121 c10 -6 19 -17 19 -24 0 -8 12 -22 27 -31 26 -17 26
-19 8 -26 -34 -13 -131 -10 -169 6 -29 12 -37 21 -34 38 2 17 13 24 53 34 65
15 73 15 96 3z"/>
<path d="M3770 5899 c89 -28 161 -49 220 -65 14 -4 23 -4 20 -1 -7 7 -305 97
-322 96 -7 0 30 -14 82 -30z"/>
<path d="M4021 5826 c2 -2 49 -23 104 -46 55 -23 148 -67 208 -96 59 -30 107
-52 107 -50 0 3 -37 24 -82 48 -136 71 -362 167 -337 144z"/>
</g>
</svg>
